# xmcd
# 
# Track frame offsets:
#     150
#     12446
#     24560
#     36359
#     48705
#     61407
#     75124
#     87930
#     98153
#     108496
#     118473
#     127157
#     139499
#     151892
#     162905
#     172241
#     185285
#     198297
#     211793
#     224894
#     237150
#     251578
#     265571
#     278831
#     292448
# 
# Disc length: 4064
# 
# Revision: 0
# Processed by: cddbd v1.5.2PL0 Copyright (c) Steve Scherf et al.
# Submitted via: fre:ac v1.0.17
# 
DISCID=7e0fde19
DTITLE=Various Artist - 101 - Country Number Ones [CD02)
DYEAR=2016
DGENRE=Country
TTITLE0=Hank Thompson - The Wild Side Of Life
TTITLE1=Marty Robbins - I'll Go On Alone
TTITLE2=Eddy Arnold - Don't Rob Another Man's Castle
TTITLE3=Hank Williams and His Drifting Cowboys - Cold, Cold Heart
TTITLE4=Hank Snow - I'm Movin' On
TTITLE5=Red Foley and the Dixie Dons - Birmingham Bounce
TTITLE6=Carl Smith - Let Old Mother Nature Have Her Way
TTITLE7=Eddy Arnold - There's Been A Change In Me
TTITLE8=Lefty Frizzell - Give Me More More More (Of Your Kisses)
TTITLE9=Margaret Whiting and Jimmy Wakely - Slipping Around
TTITLE10=George Morgan - Candy Kisses
TTITLE11=Hank Williams and His Drifting Cowboys - Lovesick Blues
TTITLE12=Eddy Arnold - Just A Little Lovin' (Will Go A Long, Long Way)
TTITLE13=Hank Williams - I'll Never Get Out Of This World
TTITLE14=Webb Pierce - In The Jailhouse Now
TTITLE15=Eddy Arnold - Anytime
TTITLE16=Wesley Tuttle - With Tears In My Eyes
TTITLE17=Merle Travis - Divorce Me C.O.D.
TTITLE18=Spade Cooley - Shame On You
TTITLE19=Al Dexter - Guitar Polka
TTITLE20=Ernest Tubb - It's Been So Long, Darling
TTITLE21=Dick Thomas - Sioux City Sue
TTITLE22=Red Foley - Smoke On The Water
TTITLE23=Bing Crosby and the Andrews Sisters - Pistol Packin' Mama
TTITLE24=Al Dexter - Rosalita
EXTD=
EXTT0=
EXTT1=
EXTT2=
EXTT3=
EXTT4=
EXTT5=
EXTT6=
EXTT7=
EXTT8=
EXTT9=
EXTT10=
EXTT11=
EXTT12=
EXTT13=
EXTT14=
EXTT15=
EXTT16=
EXTT17=
EXTT18=
EXTT19=
EXTT20=
EXTT21=
EXTT22=
EXTT23=
EXTT24=
PLAYORDER=
